<svg width="16" height="10" viewBox="0 0 16 10" fill="none" xmlns="http://www.w3.org/2000/svg">
<path d="M7.40234 9.64453C7.54297 9.85547 7.75391 9.92578 8 9.92578C8.21094 9.92578 8.42188 9.85547 8.59766 9.64453L15.418 2.82422C15.5586 2.68359 15.6641 2.47266 15.6641 2.22656C15.6641 2.01562 15.5586 1.80469 15.418 1.62891L14.6445 0.855469C14.4688 0.714844 14.2578 0.609375 14.0469 0.609375C13.8008 0.609375 13.5898 0.679688 13.4492 0.820312L8 6.26953L2.55078 0.820312C2.375 0.679688 2.16406 0.609375 1.95312 0.609375C1.70703 0.609375 1.49609 0.714844 1.35547 0.855469L0.582031 1.62891C0.40625 1.80469 0.335938 2.01562 0.335938 2.22656C0.335938 2.47266 0.40625 2.68359 0.582031 2.82422L7.40234 9.64453Z" fill="#1B1D21"/>
</svg>
