<svg width="22" height="20" viewBox="0 0 22 20" fill="none" xmlns="http://www.w3.org/2000/svg">
<g id="Filter">
<path id="Path" d="M1.02273 3.90898H4.06818C4.47727 4.90898 5.45455 5.63625 6.61364 5.63625C7.77273 5.63625 8.75 4.93171 9.15909 3.90898H20.5682C21.1364 3.90898 21.5909 3.45443 21.5909 2.88625C21.5909 2.31807 21.1364 1.86353 20.5682 1.86353H9.15909C8.75 0.818071 7.77273 0.113525 6.61364 0.113525C5.45455 0.113525 4.47727 0.818071 4.06818 1.8408H1.02273C0.454545 1.8408 0 2.29534 0 2.86353C0 3.43171 0.454545 3.90898 1.02273 3.90898Z" fill="url(#paint0_linear_13_2637)"/>
<path id="Path_2" d="M20.5682 8.97727H17.5227C17.1136 7.97727 16.1364 7.25 14.9773 7.25C13.8182 7.25 12.8409 7.95455 12.4318 8.97727H1.02273C0.454545 8.97727 0 9.43182 0 10C0 10.5682 0.454545 11.0227 1.02273 11.0227H12.4318C12.8409 12.0227 13.8182 12.75 14.9773 12.75C16.1364 12.75 17.1136 12.0455 17.5227 11.0227H20.5682C21.1364 11.0227 21.5909 10.5682 21.5909 10C21.5909 9.43182 21.1364 8.97727 20.5682 8.97727Z" fill="url(#paint1_linear_13_2637)"/>
<path id="Path_3" d="M20.5682 16.0908H9.15909C8.75 15.0908 7.77273 14.3635 6.61364 14.3635C5.45455 14.3635 4.47727 15.0681 4.06818 16.0908H1.02273C0.454545 16.0908 0 16.5453 0 17.1135C0 17.6817 0.454545 18.1363 1.02273 18.1363H4.06818C4.47727 19.1363 5.45455 19.8635 6.61364 19.8635C7.77273 19.8635 8.75 19.159 9.15909 18.1363H20.5682C21.1364 18.1363 21.5909 17.6817 21.5909 17.1135C21.5909 16.5681 21.1364 16.0908 20.5682 16.0908Z" fill="url(#paint2_linear_13_2637)"/>
</g>
<defs>
<linearGradient id="paint0_linear_13_2637" x1="10.7955" y1="0.113525" x2="10.7955" y2="5.63625" gradientUnits="userSpaceOnUse">
<stop stop-color="#FA8451"/>
<stop offset="1" stop-color="#FA5951"/>
</linearGradient>
<linearGradient id="paint1_linear_13_2637" x1="10.7955" y1="7.25" x2="10.7955" y2="12.75" gradientUnits="userSpaceOnUse">
<stop stop-color="#FA8451"/>
<stop offset="1" stop-color="#FA5951"/>
</linearGradient>
<linearGradient id="paint2_linear_13_2637" x1="10.7955" y1="14.3635" x2="10.7955" y2="19.8635" gradientUnits="userSpaceOnUse">
<stop stop-color="#FA8451"/>
<stop offset="1" stop-color="#FA5951"/>
</linearGradient>
</defs>
</svg>
