<svg width="80" height="80" viewBox="0 0 80 80" fill="none" xmlns="http://www.w3.org/2000/svg">
<g id="Iconography/Navigation/ic_Award">
<path id="path" fill-rule="evenodd" clip-rule="evenodd" d="M54.4004 71.9999V54.3999H62.4004C68.586 54.3999 73.6004 49.3855 73.6004 43.1999V17.5999C73.6004 11.4143 68.586 6.3999 62.4004 6.3999H17.6004C11.4148 6.3999 6.40039 11.4143 6.40039 17.5999V43.1999C6.40039 49.3855 11.4148 54.3999 17.6004 54.3999H25.6004V71.9999C25.6004 73.1893 26.8521 73.9629 27.9159 73.431L40.0004 67.3888L52.0849 73.431C53.1487 73.9629 54.4004 73.1893 54.4004 71.9999ZM9.60039 17.5999C9.60039 13.1816 13.1821 9.5999 17.6004 9.5999H62.4004C66.8187 9.5999 70.4004 13.1816 70.4004 17.5999V43.1999C70.4004 47.6182 66.8187 51.1999 62.4004 51.1999H17.6004C13.1821 51.1999 9.60039 47.6182 9.60039 43.1999V17.5999ZM28.8004 54.3999H38.4004V64.611L28.8004 69.411V54.3999ZM41.6004 54.3999V64.611L51.2004 69.411V54.3999H41.6004Z" fill="#00B33C"/>
<path id="path_2" fill-rule="evenodd" clip-rule="evenodd" d="M30.1307 42.8153C31.0435 44.6265 33.2343 45.3368 35.0048 44.3658L39.9995 41.6268L44.9941 44.3658C45.6996 44.7527 46.5122 44.887 47.3023 44.7456C49.2562 44.3961 50.5421 42.4993 50.2174 40.5244L49.2485 34.6313L53.3417 30.4693C53.896 29.9057 54.2536 29.1735 54.3635 28.3852C54.6398 26.4015 53.3062 24.5374 51.3425 24.2398L45.7404 23.3906L43.2227 18.0692C42.8805 17.3459 42.3144 16.7554 41.6088 16.3922C39.8144 15.4684 37.6434 16.2363 36.7763 18.0692L34.2586 23.3906L28.6564 24.2398C27.8671 24.3594 27.1418 24.7449 26.5932 25.332C25.2441 26.7757 25.2721 29.0609 26.6573 30.4693L30.7505 34.6313L29.7816 40.5244C29.653 41.3059 29.7751 42.1099 30.1307 42.8153ZM40.7688 38.3991C40.2896 38.1363 39.7094 38.1363 39.2301 38.3991L33.4661 41.5601C33.2994 41.6515 33.094 41.5849 32.9882 41.3751C32.9382 41.2759 32.9203 41.1581 32.9392 41.0435L34.04 34.3485C34.1229 33.8444 33.9601 33.3311 33.6019 32.967L28.9388 28.2255C28.7566 28.0402 28.7525 27.7081 28.9312 27.5168C28.991 27.4529 29.0628 27.4147 29.136 27.4036L35.5803 26.4268C36.1068 26.347 36.5591 26.0105 36.7868 25.5292L39.6688 19.4378C39.7703 19.2233 39.9757 19.1506 40.1441 19.2373C40.22 19.2764 40.2866 19.3458 40.3301 19.4378L43.2121 25.5292C43.4399 26.0105 43.8921 26.347 44.4186 26.4268L50.863 27.4036C51.0653 27.4343 51.2325 27.668 51.1941 27.9437C51.1785 28.0552 51.13 28.1545 51.0602 28.2255L46.397 32.967C46.0389 33.3311 45.8761 33.8444 45.959 34.3485L47.0598 41.0435C47.1051 41.3189 46.9421 41.5593 46.7388 41.5956C46.6698 41.608 46.5988 41.5963 46.5328 41.5601L40.7688 38.3991Z" fill="#00B33C"/>
</g>
</svg>
