<svg width="40" height="40" viewBox="0 0 40 40" fill="none" xmlns="http://www.w3.org/2000/svg">
<g id="Iconography/Navigation/ic_readytoapps">
<path id="Combined Shape" fill-rule="evenodd" clip-rule="evenodd" d="M10.5531 16.9047L7.9998 18.9961V16.8C7.9998 16.3582 7.64163 16 7.1998 16H5.5998C5.15798 16 4.7998 16.3582 4.7998 16.8C4.7998 17.2418 5.15798 17.6 5.5998 17.6H6.3998V33.6H5.5998C5.15798 33.6 4.7998 33.9582 4.7998 34.4C4.7998 34.8418 5.15798 35.2 5.5998 35.2H7.1998C7.64163 35.2 7.9998 34.8418 7.9998 34.4V32H11.0702L20.5953 34.7064C21.7969 35.0478 23.0889 34.8075 24.0877 34.0568C30.3637 29.3394 34.5571 26.154 35.1922 25.5635C36.7317 24.132 37.3378 22.5404 36.2409 20.9715C35.3542 19.7034 33.8589 19.5681 32.0055 20.4072L22.9914 24.9917L20.4568 24.1856C20.7836 23.9038 21.0531 23.5369 21.2624 23.0822C22.2576 20.9202 21.3404 19.1388 18.8068 18.0355L14.6094 16.3024C13.2495 15.741 11.6914 15.9723 10.5531 16.9047ZM7.9998 30.4V21.0638L11.5658 18.1429C12.2488 17.5834 13.1837 17.4446 13.9996 17.7815L18.1829 19.5086C19.9445 20.2759 20.3929 21.1468 19.8102 22.4128C19.4609 23.1717 18.6897 23.4684 17.4035 23.2147L15.6384 22.6534C15.3647 22.5409 15.0767 22.4134 14.7742 22.2705C14.3749 22.0818 13.8985 22.2528 13.7099 22.6523C13.6994 22.6747 13.69 22.6973 13.6816 22.7201C13.6595 22.7619 13.6409 22.8062 13.626 22.8529C13.4923 23.2739 13.725 23.7238 14.1458 23.8576L15.1313 24.1709C15.7486 24.4164 16.328 24.6011 16.8672 24.723L22.8194 26.6158C23.0196 26.6794 23.2366 26.6617 23.4238 26.5665L32.6973 21.8492C33.8952 21.3078 34.5671 21.3686 34.9308 21.8888C35.4421 22.62 35.1313 23.4361 34.1039 24.3914C33.5335 24.9217 29.3007 28.1373 23.1274 32.7775C22.5282 33.2279 21.753 33.3721 21.032 33.1672L11.3998 30.4304L11.1815 30.4H7.9998Z" fill="url(#paint0_linear_13_2537)"/>
<path id="path" fill-rule="evenodd" clip-rule="evenodd" d="M33.8674 12.6645C35.6439 10.8654 35.6439 7.94849 33.8674 6.14938C32.2691 4.53074 29.7774 4.36837 27.9998 5.66229C26.2223 4.36837 23.7305 4.53074 22.1322 6.14938C20.3557 7.94849 20.3557 10.8654 22.1322 12.6645L26.3027 16.8882C27.24 17.8373 28.7596 17.8373 29.6969 16.8882L33.8674 12.6645ZM28.5655 15.7424C28.2531 16.0588 27.7465 16.0588 27.4341 15.7424L23.2636 11.5188C22.1119 10.3525 22.1119 8.46147 23.2636 7.29515C24.4152 6.12883 26.2825 6.12883 27.4341 7.29515L27.9998 7.86803L28.5655 7.29515C29.7172 6.12883 31.5844 6.12883 32.7361 7.29515C33.8877 8.46147 33.8877 10.3525 32.7361 11.5188L28.5655 15.7424Z" fill="url(#paint1_linear_13_2537)"/>
</g>
<defs>
<linearGradient id="paint0_linear_13_2537" x1="20.7998" y1="16" x2="20.7998" y2="35.2" gradientUnits="userSpaceOnUse">
<stop stop-color="#FA8451"/>
<stop offset="1" stop-color="#FA5951"/>
</linearGradient>
<linearGradient id="paint1_linear_13_2537" x1="27.9998" y1="4.80005" x2="27.9998" y2="17.6" gradientUnits="userSpaceOnUse">
<stop stop-color="#FA8451"/>
<stop offset="1" stop-color="#FA5951"/>
</linearGradient>
</defs>
</svg>
