<svg width="80" height="80" viewBox="0 0 80 80" fill="none" xmlns="http://www.w3.org/2000/svg">
<g id="Iconography/Navigation/ic_User 1">
<path id="Path" fill-rule="evenodd" clip-rule="evenodd" d="M19.1996 24.0001C19.1996 31.953 25.6467 38.4001 33.5996 38.4001C41.5525 38.4001 47.9996 31.953 47.9996 24.0001C47.9996 16.0472 41.5525 9.6001 33.5996 9.6001C25.6467 9.6001 19.1996 16.0472 19.1996 24.0001ZM57.5996 65.6001C57.5996 52.3453 46.8544 41.6001 33.5996 41.6001C20.3448 41.6001 9.59961 52.3453 9.59961 65.6001V72.0001C9.59961 72.8838 10.316 73.6001 11.1996 73.6001H55.9996C56.8833 73.6001 57.5996 72.8838 57.5996 72.0001V65.6001ZM33.5996 35.2001C39.7852 35.2001 44.7996 30.1857 44.7996 24.0001C44.7996 17.8145 39.7852 12.8001 33.5996 12.8001C27.414 12.8001 22.3996 17.8145 22.3996 24.0001C22.3996 30.1857 27.414 35.2001 33.5996 35.2001ZM54.3996 65.6001V70.4001H12.7996V65.6001C12.7996 54.1126 22.1121 44.8001 33.5996 44.8001C45.0871 44.8001 54.3996 54.1126 54.3996 65.6001Z" fill="#00B33C"/>
<path id="Path_2" d="M69.1208 31.04C69.651 30.3331 70.6539 30.1898 71.3608 30.72C72.0677 31.2502 72.211 32.2531 71.6808 32.96L62.0808 45.76C61.4966 46.5389 60.3579 46.6199 59.6694 45.9314L53.2694 39.5314C52.6446 38.9065 52.6446 37.8935 53.2694 37.2686C53.8942 36.6438 54.9073 36.6438 55.5322 37.2686L60.6277 42.3641L69.1208 31.04Z" fill="#00B33C"/>
</g>
</svg>
