<svg width="40" height="40" viewBox="0 0 40 40" fill="none" xmlns="http://www.w3.org/2000/svg">
<g id="iconspace_Home 2_25px">
<path id="Path" fill-rule="evenodd" clip-rule="evenodd" d="M33.6002 32.8V17.3162L35.465 18.9946C35.7934 19.2902 36.2993 19.2635 36.5948 18.9351C36.8904 18.6067 36.8638 18.1009 36.5354 17.8053L20.5354 3.40532C20.2311 3.1315 19.7693 3.1315 19.465 3.40532L3.46503 17.8053C3.13662 18.1009 3.11 18.6067 3.40557 18.9351C3.70113 19.2635 4.20697 19.2902 4.53537 18.9946L6.4002 17.3162V32.8C6.4002 35.0091 8.19106 36.7999 10.4002 36.7999H15.2002C15.642 36.7999 16.0002 36.4418 16.0002 36L16.0002 29.5512C16.0002 28.2554 17.072 27.2 18.4002 27.2H21.6002C22.9284 27.2 24.0002 28.2554 24.0002 29.5512L24.0002 36C24.0002 36.4418 24.3584 36.7999 24.8002 36.7999H29.6002C31.8093 36.7999 33.6002 35.0091 33.6002 32.8ZM20.0002 5.07624L32.0002 15.8762V32.8C32.0002 34.1254 30.9257 35.2 29.6002 35.2H25.6002L25.6002 29.5512C25.6002 27.3662 23.8066 25.6 21.6002 25.6H18.4002C16.1938 25.6 14.4002 27.3662 14.4002 29.5512L14.4002 35.2H10.4002C9.07472 35.2 8.0002 34.1254 8.0002 32.8V15.8762L20.0002 5.07624Z" fill="url(#paint0_linear_13_2528)"/>
</g>
<defs>
<linearGradient id="paint0_linear_13_2528" x1="20.0002" y1="3.19995" x2="20.0002" y2="36.7999" gradientUnits="userSpaceOnUse">
<stop stop-color="#FA8451"/>
<stop offset="1" stop-color="#FA5951"/>
</linearGradient>
</defs>
</svg>
