<svg width="7" height="10" viewBox="0 0 7 10" fill="none" xmlns="http://www.w3.org/2000/svg">
<path d="M6.5 5.53125C6.625 5.40625 6.71875 5.21875 6.71875 5C6.71875 4.8125 6.625 4.625 6.5 4.46875L2.25 0.21875C2.09375 0.09375 1.90625 0 1.71875 0C1.5 0 1.3125 0.09375 1.1875 0.21875L0.5 0.9375C0.34375 1.09375 0.28125 1.28125 0.28125 1.46875C0.28125 1.6875 0.34375 1.875 0.5 2L3.5 5L0.5 8C0.34375 8.15625 0.28125 8.34375 0.28125 8.53125C0.28125 8.75 0.34375 8.9375 0.5 9.0625L1.1875 9.78125C1.3125 9.9375 1.5 10 1.71875 10C1.90625 10 2.09375 9.9375 2.25 9.78125L6.5 5.53125Z" fill="url(#paint0_linear_13_2405)"/>
<defs>
<linearGradient id="paint0_linear_13_2405" x1="3.5" y1="-4" x2="3.5" y2="14" gradientUnits="userSpaceOnUse">
<stop stop-color="#FA8451"/>
<stop offset="1" stop-color="#FA5951"/>
</linearGradient>
</defs>
</svg>
