<svg width="19" height="12" viewBox="0 0 19 12" fill="none" xmlns="http://www.w3.org/2000/svg">
<path d="M17.6562 1.90625C17.4688 1.15625 16.875 0.5625 16.1562 0.375C14.8125 0 9.5 0 9.5 0C9.5 0 4.15625 0 2.8125 0.375C2.09375 0.5625 1.5 1.15625 1.3125 1.90625C0.9375 3.21875 0.9375 6.03125 0.9375 6.03125C0.9375 6.03125 0.9375 8.8125 1.3125 10.1562C1.5 10.9062 2.09375 11.4688 2.8125 11.6562C4.15625 12 9.5 12 9.5 12C9.5 12 14.8125 12 16.1562 11.6562C16.875 11.4688 17.4688 10.9062 17.6562 10.1562C18.0312 8.8125 18.0312 6.03125 18.0312 6.03125C18.0312 6.03125 18.0312 3.21875 17.6562 1.90625ZM7.75 8.5625V3.5L12.1875 6.03125L7.75 8.5625Z" fill="white"/>
</svg>
